<svg xmlns="http://www.w3.org/2000/svg" width="1200" height="630" viewBox="0 0 1200 630" role="img" aria-label="AI Development Harness — repository-native workflow">
  <defs>
    <linearGradient id="g" x1="180" y1="100" x2="1000" y2="560" gradientUnits="userSpaceOnUse"><stop stop-color="#2be8ff"/><stop offset=".52" stop-color="#4387ff"/><stop offset="1" stop-color="#a64dff"/></linearGradient>
    <radialGradient id="bg"><stop stop-color="#102955"/><stop offset="1" stop-color="#050914"/></radialGradient>
  </defs>
  <rect width="1200" height="630" fill="#050914"/><circle cx="850" cy="200" r="390" fill="url(#bg)" opacity=".78"/>
  <g opacity=".18" stroke="#5f8ac0"><path d="M0 105h1200M0 210h1200M0 315h1200M0 420h1200M0 525h1200"/><path d="M150 0v630M300 0v630M450 0v630M600 0v630M750 0v630M900 0v630M1050 0v630"/></g>
  <g transform="translate(760 122)"><path d="M0 235 118 6h58L70 235H0Z" fill="url(#g)"/><path d="m159 41 54 98-44 80H97l62-111-28-50 28-17Z" fill="#2f91ff"/><path d="m219 134 68 123h-70l-39-72 41-51Z" fill="#a64dff"/><path d="M72 232h166l-28 43H44l28-43Z" fill="#3c72ff"/></g>
  <text x="78" y="160" fill="#59dff5" font-family="Arial,sans-serif" font-size="20" font-weight="700" letter-spacing="4">REPOSITORY-NATIVE AI WORKFLOW</text>
  <text x="78" y="250" fill="#f5f8ff" font-family="Arial,sans-serif" font-size="60" font-weight="800">AI Development</text>
  <text x="78" y="322" fill="url(#g)" font-family="Arial,sans-serif" font-size="60" font-weight="800">Harness</text>
  <text x="78" y="390" fill="#9eb0c6" font-family="Arial,sans-serif" font-size="27">Репозиторий становится долговременной</text>
  <text x="78" y="428" fill="#9eb0c6" font-family="Arial,sans-serif" font-size="27">памятью проекта для AI-разработки.</text>
  <text x="78" y="530" fill="#6e88a9" font-family="Arial,sans-serif" font-size="19">Brief → REQ → ADR → STEP → Code → Evidence → Review → Git</text>
</svg>
